<svg width="12" height="12" viewBox="0 0 12 12" fill="none" xmlns="http://www.w3.org/2000/svg">
<path d="M1.99994 10.5H2.49994V4.00003H1.99994C1.73472 4.00003 1.48037 4.10539 1.29283 4.29292C1.1053 4.48046 0.999939 4.73481 0.999939 5.00003V9.50003C0.999939 9.76525 1.1053 10.0196 1.29283 10.2071C1.48037 10.3947 1.73472 10.5 1.99994 10.5ZM9.99994 4.00003H6.49994L7.06094 2.31603C7.111 2.16574 7.12463 2.0057 7.10073 1.84911C7.07682 1.69251 7.01605 1.54384 6.92343 1.41533C6.83081 1.28682 6.70898 1.18215 6.56798 1.10995C6.42698 1.03775 6.27085 1.00007 6.11244 1.00003H5.99994L3.49994 3.71903V10.5H8.99994L10.9559 6.20203L10.9999 6.00003V5.00003C10.9999 4.73481 10.8946 4.48046 10.707 4.29292C10.5195 4.10539 10.2652 4.00003 9.99994 4.00003Z" fill="#51CBFF"/>
</svg>
