<svg width="12" height="12" viewBox="0 0 12 12" fill="none" xmlns="http://www.w3.org/2000/svg">
<path d="M10 1H2C1.4485 1 1 1.4485 1 2V11L3 9H10C10.5515 9 11 8.5515 11 8V2C11 1.4485 10.5515 1 10 1ZM4.5 6C4.36865 5.99997 4.23858 5.97406 4.11724 5.92376C3.9959 5.87347 3.88565 5.79976 3.79279 5.70686C3.69993 5.61395 3.62628 5.50367 3.57604 5.3823C3.52581 5.26093 3.49997 5.13085 3.5 4.9995C3.50003 4.86814 3.52594 4.73808 3.57624 4.61674C3.62653 4.4954 3.70024 4.38515 3.79314 4.29229C3.88605 4.19943 3.99633 4.12578 4.1177 4.07554C4.23907 4.02531 4.36915 3.99947 4.5005 3.9995C4.76578 3.99957 5.02017 4.10501 5.20771 4.29264C5.39525 4.48027 5.50057 4.73472 5.5005 5C5.50043 5.26528 5.39499 5.51967 5.20736 5.70721C5.01973 5.89475 4.76528 6.00007 4.5 6ZM7.5 6C7.36865 5.99997 7.23858 5.97406 7.11724 5.92376C6.9959 5.87347 6.88565 5.79976 6.79279 5.70686C6.69993 5.61395 6.62628 5.50367 6.57604 5.3823C6.52581 5.26093 6.49997 5.13085 6.5 4.9995C6.50003 4.86814 6.52594 4.73808 6.57624 4.61674C6.62653 4.4954 6.70024 4.38515 6.79314 4.29229C6.88605 4.19943 6.99633 4.12578 7.1177 4.07554C7.23907 4.02531 7.36915 3.99947 7.5005 3.9995C7.76578 3.99957 8.02017 4.10501 8.20771 4.29264C8.39525 4.48027 8.50057 4.73472 8.5005 5C8.50043 5.26528 8.39499 5.51967 8.20736 5.70721C8.01973 5.89475 7.76528 6.00007 7.5 6Z" fill="#51CBFF"/>
</svg>
