<svg width="184" height="175" viewBox="0 0 184 175" fill="none" xmlns="http://www.w3.org/2000/svg">
<path d="M162.353 91.0876C162.353 129.817 130.957 161.214 92.2273 161.214C53.4978 161.214 22.1013 129.817 22.1013 91.0876C22.1013 52.3581 53.4978 20.9617 92.2273 20.9617C130.957 20.9617 162.353 52.3581 162.353 91.0876Z" stroke="#51CBFF" stroke-width="27.2925"/>
<path d="M162.69 91.3588C162.69 76.6256 158.03 62.2685 149.375 50.335C140.72 38.4014 128.511 29.5006 114.49 24.9019C100.469 20.3033 85.3515 20.2415 71.2932 24.7255C57.235 29.2094 44.9538 38.0101 36.201 49.8726C27.4483 61.7351 22.6709 76.0536 22.5501 90.7863C22.4293 105.519 26.9713 119.914 35.5284 131.918C44.0855 143.922 56.2207 152.922 70.2036 157.635" stroke="#B6E9FF" stroke-width="27.2925"/>
<path d="M162.691 91.3903C162.691 79.4083 159.593 67.6269 153.695 57.1747C147.797 46.7224 139.295 37.9492 129.005 31.6955C118.714 25.4417 106.979 21.9168 94.9239 21.4584C82.8687 21 70.8968 23.6233 60.1549 29.0773C49.4131 34.5312 40.261 42.6331 33.5753 52.6068C26.8896 62.5806 22.8942 74.0922 21.9717 86.0391C21.0493 97.986 23.2306 109.968 28.307 120.838" stroke="#017EFA" stroke-width="27.2925"/>
<path opacity="0.15" d="M162.691 91.3903C162.691 79.4084 159.593 67.627 153.695 57.1747C147.797 46.7225 139.295 37.9493 129.005 31.6956C118.714 25.4418 106.979 21.9169 94.9241 21.4585C82.8689 21 70.897 23.6234 60.1551 29.0774C49.4133 34.5313 40.2612 42.6332 33.5755 52.6069C26.8898 62.5807 22.8944 74.0923 21.9719 86.0392C21.0495 97.9861 23.2309 109.968 28.3072 120.838" stroke="#017EFA" stroke-width="42.29"/>
</svg>
