<svg width="230" height="57" viewBox="0 0 230 57" fill="none" xmlns="http://www.w3.org/2000/svg">
<circle cx="14" cy="14" r="14" fill="#E6F3FF"/>
<path d="M13.9917 5.66667C9.39167 5.66667 5.66667 9.4 5.66667 14C5.66667 18.6 9.39167 22.3333 13.9917 22.3333C18.6 22.3333 22.3333 18.6 22.3333 14C22.3333 9.4 18.6 5.66667 13.9917 5.66667ZM11.0833 10.6667C11.775 10.6667 12.3333 11.225 12.3333 11.9167C12.3333 12.6083 11.775 13.1667 11.0833 13.1667C10.3917 13.1667 9.83334 12.6083 9.83334 11.9167C9.83334 11.225 10.3917 10.6667 11.0833 10.6667ZM17.9583 16.2917C17.1667 17.6583 15.6917 18.5833 14 18.5833C12.3083 18.5833 10.8333 17.6583 10.0417 16.2917C9.88334 16.0167 10.0917 15.6667 10.4083 15.6667H17.5917C17.9167 15.6667 18.1167 16.0167 17.9583 16.2917ZM16.9167 13.1667C16.225 13.1667 15.6667 12.6083 15.6667 11.9167C15.6667 11.225 16.225 10.6667 16.9167 10.6667C17.6083 10.6667 18.1667 11.225 18.1667 11.9167C18.1667 12.6083 17.6083 13.1667 16.9167 13.1667Z" fill="#017EFA"/>
<path d="M46.666 3.2H44.482L42.354 7.288L40.226 3.2H38.042L41.388 9.178V13H43.306V9.178L46.666 3.2ZM49.4588 13.196C51.5168 13.196 53.1688 11.586 53.1688 9.5C53.1688 7.414 51.5168 5.804 49.4588 5.804C47.4008 5.804 45.7628 7.414 45.7628 9.5C45.7628 11.586 47.4008 13.196 49.4588 13.196ZM49.4588 11.432C48.3948 11.432 47.5688 10.634 47.5688 9.5C47.5688 8.366 48.3948 7.568 49.4588 7.568C50.5368 7.568 51.3628 8.366 51.3628 9.5C51.3628 10.634 50.5368 11.432 49.4588 11.432ZM59.0593 6V9.78C59.0593 10.998 58.4013 11.516 57.5193 11.516C56.7073 11.516 56.1333 11.026 56.1333 10.074V6H54.3273V10.298C54.3273 12.16 55.4893 13.196 56.9733 13.196C57.9113 13.196 58.6393 12.846 59.0593 12.216V13H60.8653V6H59.0593ZM64.8994 3.186H62.9394L62.3794 7.078H63.8494L64.8994 3.186ZM68.2218 7.204V6H66.4158V13H68.2218V9.654C68.2218 8.184 69.4118 7.764 70.3498 7.876V5.86C69.4678 5.86 68.5858 6.252 68.2218 7.204ZM72.6723 10.242H77.9503C77.9923 10.004 78.0203 9.766 78.0203 9.5C78.0203 7.442 76.5503 5.804 74.4783 5.804C72.2803 5.804 70.7823 7.414 70.7823 9.5C70.7823 11.586 72.2663 13.196 74.6183 13.196C75.9623 13.196 77.0123 12.65 77.6703 11.698L76.2143 10.858C75.9063 11.264 75.3463 11.558 74.6463 11.558C73.6943 11.558 72.9243 11.166 72.6723 10.242ZM72.6443 8.842C72.8543 7.946 73.5123 7.428 74.4783 7.428C75.2343 7.428 75.9903 7.834 76.2143 8.842H72.6443ZM88.0871 3.2V6.826C87.5831 6.182 86.8411 5.804 85.8191 5.804C83.9431 5.804 82.4031 7.414 82.4031 9.5C82.4031 11.586 83.9431 13.196 85.8191 13.196C86.8411 13.196 87.5831 12.818 88.0871 12.174V13H89.8931V3.2H88.0871ZM86.1551 11.474C85.0351 11.474 84.2091 10.676 84.2091 9.5C84.2091 8.324 85.0351 7.526 86.1551 7.526C87.2611 7.526 88.0871 8.324 88.0871 9.5C88.0871 10.676 87.2611 11.474 86.1551 11.474ZM94.8768 13.196C96.9348 13.196 98.5868 11.586 98.5868 9.5C98.5868 7.414 96.9348 5.804 94.8768 5.804C92.8188 5.804 91.1807 7.414 91.1807 9.5C91.1807 11.586 92.8188 13.196 94.8768 13.196ZM94.8768 11.432C93.8128 11.432 92.9868 10.634 92.9868 9.5C92.9868 8.366 93.8128 7.568 94.8768 7.568C95.9548 7.568 96.7808 8.366 96.7808 9.5C96.7808 10.634 95.9548 11.432 94.8768 11.432ZM100.753 5.16C101.369 5.16 101.873 4.656 101.873 4.054C101.873 3.452 101.369 2.934 100.753 2.934C100.151 2.934 99.6473 3.452 99.6473 4.054C99.6473 4.656 100.151 5.16 100.753 5.16ZM99.8573 13H101.663V6H99.8573V13ZM107.208 5.804C106.27 5.804 105.542 6.154 105.122 6.784V6H103.316V13H105.122V9.22C105.122 8.002 105.78 7.484 106.662 7.484C107.474 7.484 108.048 7.974 108.048 8.926V13H109.854V8.702C109.854 6.84 108.692 5.804 107.208 5.804ZM116.758 6V6.868C116.268 6.21 115.512 5.804 114.518 5.804C112.53 5.804 111.032 7.428 111.032 9.388C111.032 11.362 112.53 12.972 114.518 12.972C115.512 12.972 116.268 12.566 116.758 11.908V12.664C116.758 13.77 116.058 14.386 114.924 14.386C113.846 14.386 113.384 13.952 113.09 13.406L111.55 14.288C112.166 15.422 113.37 15.996 114.868 15.996C116.716 15.996 118.522 14.96 118.522 12.664V6H116.758ZM114.798 11.306C113.664 11.306 112.838 10.508 112.838 9.388C112.838 8.282 113.664 7.484 114.798 7.484C115.932 7.484 116.758 8.282 116.758 9.388C116.758 10.508 115.932 11.306 114.798 11.306ZM129.022 6V6.868C128.532 6.21 127.776 5.804 126.782 5.804C124.794 5.804 123.296 7.428 123.296 9.388C123.296 11.362 124.794 12.972 126.782 12.972C127.776 12.972 128.532 12.566 129.022 11.908V12.664C129.022 13.77 128.322 14.386 127.188 14.386C126.11 14.386 125.648 13.952 125.354 13.406L123.814 14.288C124.43 15.422 125.634 15.996 127.132 15.996C128.98 15.996 130.786 14.96 130.786 12.664V6H129.022ZM127.062 11.306C125.928 11.306 125.102 10.508 125.102 9.388C125.102 8.282 125.928 7.484 127.062 7.484C128.196 7.484 129.022 8.282 129.022 9.388C129.022 10.508 128.196 11.306 127.062 11.306ZM135.756 13.196C137.814 13.196 139.466 11.586 139.466 9.5C139.466 7.414 137.814 5.804 135.756 5.804C133.698 5.804 132.06 7.414 132.06 9.5C132.06 11.586 133.698 13.196 135.756 13.196ZM135.756 11.432C134.692 11.432 133.866 10.634 133.866 9.5C133.866 8.366 134.692 7.568 135.756 7.568C136.834 7.568 137.66 8.366 137.66 9.5C137.66 10.634 136.834 11.432 135.756 11.432ZM144.068 13.196C146.126 13.196 147.778 11.586 147.778 9.5C147.778 7.414 146.126 5.804 144.068 5.804C142.01 5.804 140.372 7.414 140.372 9.5C140.372 11.586 142.01 13.196 144.068 13.196ZM144.068 11.432C143.004 11.432 142.178 10.634 142.178 9.5C142.178 8.366 143.004 7.568 144.068 7.568C145.146 7.568 145.972 8.366 145.972 9.5C145.972 10.634 145.146 11.432 144.068 11.432ZM154.355 3.2V6.826C153.851 6.182 153.109 5.804 152.087 5.804C150.211 5.804 148.671 7.414 148.671 9.5C148.671 11.586 150.211 13.196 152.087 13.196C153.109 13.196 153.851 12.818 154.355 12.174V13H156.161V3.2H154.355ZM152.423 11.474C151.303 11.474 150.477 10.676 150.477 9.5C150.477 8.324 151.303 7.526 152.423 7.526C153.529 7.526 154.355 8.324 154.355 9.5C154.355 10.676 153.529 11.474 152.423 11.474ZM158.148 9.71H159.576L159.94 6V3.2H157.77V6L158.148 9.71ZM158.862 13.182C159.52 13.182 160.052 12.65 160.052 11.992C160.052 11.334 159.52 10.802 158.862 10.802C158.204 10.802 157.672 11.334 157.672 11.992C157.672 12.65 158.204 13.182 158.862 13.182Z" fill="black"/>
<path opacity="0.5" d="M45.152 25.6H43.904L41.624 29.536L39.344 25.6H38.096L41.06 30.592V34H42.176V30.604L45.152 25.6ZM47.6589 34.156C49.4109 34.156 50.8269 32.776 50.8269 31C50.8269 29.224 49.4109 27.844 47.6589 27.844C45.9069 27.844 44.5029 29.224 44.5029 31C44.5029 32.776 45.9069 34.156 47.6589 34.156ZM47.6589 33.136C46.4709 33.136 45.5469 32.212 45.5469 31C45.5469 29.788 46.4709 28.864 47.6589 28.864C48.8589 28.864 49.7829 29.788 49.7829 31C49.7829 32.212 48.8589 33.136 47.6589 33.136ZM56.1976 28V31.18C56.1976 32.596 55.4176 33.16 54.4576 33.16C53.5336 33.16 52.9696 32.608 52.9696 31.624V28H51.9256V31.684C51.9256 33.22 52.8496 34.156 54.2536 34.156C55.0936 34.156 55.7536 33.844 56.1976 33.136V34H57.2416V28H56.1976ZM59.8751 29.008V28H58.8311V34H59.8751V30.82C59.8751 29.404 60.8471 28.948 61.7471 28.984V27.892C60.9911 27.892 60.2591 28.168 59.8751 29.008ZM66.8126 29.008V28H65.7686V34H66.8126V30.82C66.8126 29.404 67.7846 28.948 68.6846 28.984V27.892C67.9286 27.892 67.1966 28.168 66.8126 29.008ZM70.1099 31.48H75.1379C75.1619 31.324 75.1739 31.168 75.1739 31.012C75.1739 29.332 73.9979 27.844 72.1859 27.844C70.3139 27.844 69.0419 29.224 69.0419 31C69.0419 32.8 70.3259 34.156 72.2579 34.156C73.4579 34.156 74.3699 33.616 74.8979 32.8L74.0099 32.296C73.7099 32.788 73.1099 33.172 72.2819 33.172C71.1659 33.172 70.3139 32.56 70.1099 31.48ZM72.1859 28.828C73.0859 28.828 73.9379 29.38 74.1179 30.568H70.1099C70.2779 29.524 71.0579 28.828 72.1859 28.828ZM81.3303 28V29.032C80.8503 28.3 80.0823 27.844 79.0623 27.844C77.3943 27.844 76.0263 29.224 76.0263 31C76.0263 32.776 77.3943 34.156 79.0623 34.156C80.0823 34.156 80.8503 33.7 81.3303 32.968V34H82.3743V28H81.3303ZM79.1943 33.148C77.9943 33.148 77.0703 32.224 77.0703 31C77.0703 29.776 77.9943 28.852 79.1943 28.852C80.4063 28.852 81.3303 29.776 81.3303 31C81.3303 32.224 80.4063 33.148 79.1943 33.148ZM86.7761 34.156C87.9521 34.156 88.9721 33.532 89.4761 32.596L88.5881 32.08C88.2521 32.704 87.5921 33.124 86.7761 33.124C85.5761 33.124 84.6641 32.2 84.6641 31C84.6641 29.788 85.5761 28.864 86.7761 28.864C87.5801 28.864 88.2521 29.284 88.5521 29.92L89.4281 29.416C88.9721 28.468 87.9641 27.844 86.7761 27.844C84.9641 27.844 83.6201 29.224 83.6201 31C83.6201 32.776 84.9641 34.156 86.7761 34.156ZM93.4948 27.844C92.6548 27.844 91.9948 28.156 91.5508 28.864V25.6H90.5068V34H91.5508V30.82C91.5508 29.404 92.3308 28.84 93.2908 28.84C94.2148 28.84 94.7788 29.392 94.7788 30.376V34H95.8228V30.316C95.8228 28.78 94.8988 27.844 93.4948 27.844ZM103.592 27.844C102.572 27.844 101.804 28.3 101.324 29.032V28H100.28V36.4H101.324V32.968C101.804 33.7 102.572 34.156 103.592 34.156C105.26 34.156 106.628 32.776 106.628 31C106.628 29.224 105.26 27.844 103.592 27.844ZM103.46 33.148C102.248 33.148 101.324 32.224 101.324 31C101.324 29.776 102.248 28.852 103.46 28.852C104.66 28.852 105.584 29.776 105.584 31C105.584 32.224 104.66 33.148 103.46 33.148ZM108.606 31.48H113.634C113.658 31.324 113.67 31.168 113.67 31.012C113.67 29.332 112.494 27.844 110.682 27.844C108.81 27.844 107.538 29.224 107.538 31C107.538 32.8 108.822 34.156 110.754 34.156C111.954 34.156 112.866 33.616 113.394 32.8L112.506 32.296C112.206 32.788 111.606 33.172 110.778 33.172C109.662 33.172 108.81 32.56 108.606 31.48ZM110.682 28.828C111.582 28.828 112.434 29.38 112.614 30.568H108.606C108.774 29.524 109.554 28.828 110.682 28.828ZM115.914 29.008V28H114.87V34H115.914V30.82C115.914 29.404 116.886 28.948 117.786 28.984V27.892C117.03 27.892 116.298 28.168 115.914 29.008ZM121.892 26.452V25.444C120.176 25.324 119.264 26.224 119.264 27.82V28H118.304V29.008H119.264V34H120.308V29.008H121.892V28H120.308V27.82C120.308 26.776 120.848 26.368 121.892 26.452ZM125.178 34.156C126.93 34.156 128.346 32.776 128.346 31C128.346 29.224 126.93 27.844 125.178 27.844C123.426 27.844 122.022 29.224 122.022 31C122.022 32.776 123.426 34.156 125.178 34.156ZM125.178 33.136C123.99 33.136 123.066 32.212 123.066 31C123.066 29.788 123.99 28.864 125.178 28.864C126.378 28.864 127.302 29.788 127.302 31C127.302 32.212 126.378 33.136 125.178 33.136ZM130.621 29.008V28H129.577V34H130.621V30.82C130.621 29.404 131.593 28.948 132.493 28.984V27.892C131.737 27.892 131.005 28.168 130.621 29.008ZM139.995 27.844C139.215 27.844 138.531 28.18 138.111 28.864C137.763 28.216 137.163 27.844 136.347 27.844C135.615 27.844 134.991 28.132 134.559 28.804V28H133.515V34H134.559V30.664C134.559 29.368 135.291 28.84 136.095 28.84C136.875 28.84 137.367 29.356 137.367 30.304V34H138.411V30.664C138.411 29.368 139.047 28.84 139.887 28.84C140.679 28.84 141.207 29.356 141.207 30.304V34H142.251V30.268C142.251 28.768 141.327 27.844 139.995 27.844ZM148.666 28V29.032C148.186 28.3 147.418 27.844 146.398 27.844C144.73 27.844 143.362 29.224 143.362 31C143.362 32.776 144.73 34.156 146.398 34.156C147.418 34.156 148.186 33.7 148.666 32.968V34H149.71V28H148.666ZM146.53 33.148C145.33 33.148 144.406 32.224 144.406 31C144.406 29.776 145.33 28.852 146.53 28.852C147.742 28.852 148.666 29.776 148.666 31C148.666 32.224 147.742 33.148 146.53 33.148ZM154.28 27.844C153.44 27.844 152.78 28.156 152.336 28.864V28H151.292V34H152.336V30.82C152.336 29.404 153.116 28.84 154.076 28.84C155 28.84 155.564 29.392 155.564 30.376V34H156.608V30.316C156.608 28.78 155.684 27.844 154.28 27.844ZM160.885 34.156C162.061 34.156 163.081 33.532 163.585 32.596L162.697 32.08C162.361 32.704 161.701 33.124 160.885 33.124C159.685 33.124 158.773 32.2 158.773 31C158.773 29.788 159.685 28.864 160.885 28.864C161.689 28.864 162.361 29.284 162.661 29.92L163.537 29.416C163.081 28.468 162.073 27.844 160.885 27.844C159.073 27.844 157.729 29.224 157.729 31C157.729 32.776 159.073 34.156 160.885 34.156ZM165.266 31.48H170.294C170.318 31.324 170.33 31.168 170.33 31.012C170.33 29.332 169.154 27.844 167.342 27.844C165.47 27.844 164.198 29.224 164.198 31C164.198 32.8 165.482 34.156 167.414 34.156C168.614 34.156 169.526 33.616 170.054 32.8L169.166 32.296C168.866 32.788 168.266 33.172 167.438 33.172C166.322 33.172 165.47 32.56 165.266 31.48ZM167.342 28.828C168.242 28.828 169.094 29.38 169.274 30.568H165.266C165.434 29.524 166.214 28.828 167.342 28.828ZM175.058 26.908C175.442 26.908 175.754 26.596 175.754 26.212C175.754 25.828 175.442 25.504 175.058 25.504C174.662 25.504 174.35 25.828 174.35 26.212C174.35 26.596 174.662 26.908 175.058 26.908ZM174.53 34H175.574V28H174.53V34ZM178.055 29.62C178.055 29.08 178.583 28.816 179.123 28.816C179.651 28.816 180.179 29.044 180.407 29.584L181.283 29.092C180.899 28.312 180.107 27.844 179.123 27.844C177.911 27.844 176.999 28.576 176.999 29.632C176.999 31.804 180.359 31.072 180.359 32.356C180.359 32.944 179.807 33.172 179.171 33.172C178.427 33.172 177.875 32.812 177.683 32.236L176.783 32.752C177.131 33.58 177.971 34.156 179.171 34.156C180.455 34.156 181.415 33.472 181.415 32.356C181.415 30.148 178.055 30.904 178.055 29.62ZM187.235 25.6L185.027 26.368L185.303 27.328L187.091 26.8V34H188.195V25.6H187.235ZM189.569 34H194.993V32.92H191.189L193.337 30.784C194.165 29.956 194.837 29.056 194.837 28.012C194.837 26.356 193.529 25.444 192.221 25.444C191.129 25.444 190.109 25.984 189.569 27.1L190.505 27.652C190.865 26.896 191.465 26.524 192.233 26.524C193.013 26.524 193.721 27.04 193.721 28.024C193.721 28.732 193.193 29.404 192.533 30.064L189.569 33.088V34ZM197.904 29.164C199.02 29.164 199.8 28.336 199.8 27.304C199.8 26.272 198.996 25.444 197.904 25.444C196.812 25.444 196.008 26.284 196.008 27.304C196.008 28.336 196.812 29.164 197.904 29.164ZM197.904 28.288C197.34 28.288 196.944 27.856 196.944 27.304C196.944 26.764 197.34 26.332 197.904 26.332C198.48 26.332 198.864 26.764 198.864 27.304C198.864 27.844 198.48 28.288 197.904 28.288ZM196.572 32.812L197.148 33.148L202.74 26.896L202.152 26.572L196.572 32.812ZM201.528 34.144C202.62 34.144 203.424 33.316 203.424 32.284C203.424 31.252 202.62 30.424 201.528 30.424C200.436 30.424 199.632 31.252 199.632 32.284C199.632 33.316 200.436 34.144 201.528 34.144ZM201.528 33.256C200.952 33.256 200.568 32.824 200.568 32.284C200.568 31.744 200.952 31.312 201.528 31.312C202.092 31.312 202.488 31.744 202.488 32.284C202.488 32.824 202.092 33.256 201.528 33.256ZM42.104 45.844C41.084 45.844 40.316 46.3 39.836 47.032V43.6H38.792V52H39.836V50.968C40.316 51.7 41.084 52.156 42.104 52.156C43.772 52.156 45.14 50.776 45.14 49C45.14 47.224 43.772 45.844 42.104 45.844ZM41.972 51.148C40.76 51.148 39.836 50.224 39.836 49C39.836 47.776 40.76 46.852 41.972 46.852C43.172 46.852 44.096 47.776 44.096 49C44.096 50.224 43.172 51.148 41.972 51.148ZM47.1178 49.48H52.1458C52.1698 49.324 52.1818 49.168 52.1818 49.012C52.1818 47.332 51.0058 45.844 49.1938 45.844C47.3218 45.844 46.0498 47.224 46.0498 49C46.0498 50.8 47.3338 52.156 49.2658 52.156C50.4658 52.156 51.3778 51.616 51.9058 50.8L51.0178 50.296C50.7178 50.788 50.1178 51.172 49.2898 51.172C48.1738 51.172 47.3218 50.56 47.1178 49.48ZM49.1938 46.828C50.0938 46.828 50.9458 47.38 51.1258 48.568H47.1178C47.2858 47.524 48.0658 46.828 49.1938 46.828ZM56.4701 47.008V46H54.8741V44.32L53.8301 44.632V46H52.6421V47.008H53.8301V50.26C53.8301 51.76 54.6701 52.24 56.4701 52V51.064C55.4021 51.112 54.8741 51.172 54.8741 50.26V47.008H56.4701ZM60.6537 47.008V46H59.0577V44.32L58.0137 44.632V46H56.8257V47.008H58.0137V50.26C58.0137 51.76 58.8537 52.24 60.6537 52V51.064C59.5857 51.112 59.0577 51.172 59.0577 50.26V47.008H60.6537ZM62.317 49.48H67.345C67.369 49.324 67.381 49.168 67.381 49.012C67.381 47.332 66.205 45.844 64.393 45.844C62.521 45.844 61.249 47.224 61.249 49C61.249 50.8 62.533 52.156 64.465 52.156C65.665 52.156 66.577 51.616 67.105 50.8L66.217 50.296C65.917 50.788 65.317 51.172 64.489 51.172C63.373 51.172 62.521 50.56 62.317 49.48ZM64.393 46.828C65.293 46.828 66.145 47.38 66.325 48.568H62.317C62.485 47.524 63.265 46.828 64.393 46.828ZM69.6251 47.008V46H68.5811V52H69.6251V48.82C69.6251 47.404 70.5971 46.948 71.4971 46.984V45.892C70.7411 45.892 70.0091 46.168 69.6251 47.008ZM78.3386 52.156C79.5146 52.156 80.5346 51.532 81.0386 50.596L80.1506 50.08C79.8146 50.704 79.1546 51.124 78.3386 51.124C77.1386 51.124 76.2266 50.2 76.2266 49C76.2266 47.788 77.1386 46.864 78.3386 46.864C79.1426 46.864 79.8146 47.284 80.1146 47.92L80.9906 47.416C80.5346 46.468 79.5266 45.844 78.3386 45.844C76.5266 45.844 75.1826 47.224 75.1826 49C75.1826 50.776 76.5266 52.156 78.3386 52.156ZM84.8073 52.156C86.5593 52.156 87.9753 50.776 87.9753 49C87.9753 47.224 86.5593 45.844 84.8073 45.844C83.0553 45.844 81.6513 47.224 81.6513 49C81.6513 50.776 83.0553 52.156 84.8073 52.156ZM84.8073 51.136C83.6193 51.136 82.6953 50.212 82.6953 49C82.6953 47.788 83.6193 46.864 84.8073 46.864C86.0073 46.864 86.9313 47.788 86.9313 49C86.9313 50.212 86.0073 51.136 84.8073 51.136ZM95.6861 45.844C94.9061 45.844 94.2221 46.18 93.8021 46.864C93.4541 46.216 92.8541 45.844 92.0381 45.844C91.3061 45.844 90.6821 46.132 90.2501 46.804V46H89.2061V52H90.2501V48.664C90.2501 47.368 90.9821 46.84 91.7861 46.84C92.5661 46.84 93.0581 47.356 93.0581 48.304V52H94.1021V48.664C94.1021 47.368 94.7381 46.84 95.5781 46.84C96.3701 46.84 96.8981 47.356 96.8981 48.304V52H97.9421V48.268C97.9421 46.768 97.0181 45.844 95.6861 45.844ZM102.702 45.844C101.682 45.844 100.914 46.3 100.434 47.032V46H99.3897V54.4H100.434V50.968C100.914 51.7 101.682 52.156 102.702 52.156C104.37 52.156 105.738 50.776 105.738 49C105.738 47.224 104.37 45.844 102.702 45.844ZM102.57 51.148C101.358 51.148 100.434 50.224 100.434 49C100.434 47.776 101.358 46.852 102.57 46.852C103.77 46.852 104.694 47.776 104.694 49C104.694 50.224 103.77 51.148 102.57 51.148ZM111.951 46V47.032C111.471 46.3 110.703 45.844 109.683 45.844C108.015 45.844 106.647 47.224 106.647 49C106.647 50.776 108.015 52.156 109.683 52.156C110.703 52.156 111.471 51.7 111.951 50.968V52H112.995V46H111.951ZM109.815 51.148C108.615 51.148 107.691 50.224 107.691 49C107.691 47.776 108.615 46.852 109.815 46.852C111.027 46.852 111.951 47.776 111.951 49C111.951 50.224 111.027 51.148 109.815 51.148ZM117.841 47.008V46H116.245V44.32L115.201 44.632V46H114.013V47.008H115.201V50.26C115.201 51.76 116.041 52.24 117.841 52V51.064C116.773 51.112 116.245 51.172 116.245 50.26V47.008H117.841ZM119.504 49.48H124.532C124.556 49.324 124.568 49.168 124.568 49.012C124.568 47.332 123.392 45.844 121.58 45.844C119.708 45.844 118.436 47.224 118.436 49C118.436 50.8 119.72 52.156 121.652 52.156C122.852 52.156 123.764 51.616 124.292 50.8L123.404 50.296C123.104 50.788 122.504 51.172 121.676 51.172C120.56 51.172 119.708 50.56 119.504 49.48ZM121.58 46.828C122.48 46.828 123.332 47.38 123.512 48.568H119.504C119.672 47.524 120.452 46.828 121.58 46.828ZM132.033 47.008V46H130.437V44.32L129.393 44.632V46H128.205V47.008H129.393V50.26C129.393 51.76 130.233 52.24 132.033 52V51.064C130.965 51.112 130.437 51.172 130.437 50.26V47.008H132.033ZM135.784 52.156C137.536 52.156 138.952 50.776 138.952 49C138.952 47.224 137.536 45.844 135.784 45.844C134.032 45.844 132.628 47.224 132.628 49C132.628 50.776 134.032 52.156 135.784 52.156ZM135.784 51.136C134.596 51.136 133.672 50.212 133.672 49C133.672 47.788 134.596 46.864 135.784 46.864C136.984 46.864 137.908 47.788 137.908 49C137.908 50.212 136.984 51.136 135.784 51.136ZM143.183 52H144.227V43.24H143.183V52ZM150.787 46V47.032C150.307 46.3 149.539 45.844 148.519 45.844C146.851 45.844 145.483 47.224 145.483 49C145.483 50.776 146.851 52.156 148.519 52.156C149.539 52.156 150.307 51.7 150.787 50.968V52H151.831V46H150.787ZM148.651 51.148C147.451 51.148 146.527 50.224 146.527 49C146.527 47.776 147.451 46.852 148.651 46.852C149.863 46.852 150.787 47.776 150.787 49C150.787 50.224 149.863 51.148 148.651 51.148ZM154.301 47.62C154.301 47.08 154.829 46.816 155.369 46.816C155.897 46.816 156.425 47.044 156.653 47.584L157.529 47.092C157.145 46.312 156.353 45.844 155.369 45.844C154.157 45.844 153.245 46.576 153.245 47.632C153.245 49.804 156.605 49.072 156.605 50.356C156.605 50.944 156.053 51.172 155.417 51.172C154.673 51.172 154.121 50.812 153.929 50.236L153.029 50.752C153.377 51.58 154.217 52.156 155.417 52.156C156.701 52.156 157.661 51.472 157.661 50.356C157.661 48.148 154.301 48.904 154.301 47.62ZM161.927 47.008V46H160.331V44.32L159.287 44.632V46H158.099V47.008H159.287V50.26C159.287 51.76 160.127 52.24 161.927 52V51.064C160.859 51.112 160.331 51.172 160.331 50.26V47.008H161.927ZM170.386 46L168.658 50.704L166.618 46H165.502L168.118 51.976L168.01 52.204C167.698 52.996 167.194 53.488 166.39 53.428V54.4C167.614 54.484 168.55 53.716 169.054 52.372L171.502 46H170.386ZM172.872 49.48H177.9C177.924 49.324 177.936 49.168 177.936 49.012C177.936 47.332 176.76 45.844 174.948 45.844C173.076 45.844 171.804 47.224 171.804 49C171.804 50.8 173.088 52.156 175.02 52.156C176.22 52.156 177.132 51.616 177.66 50.8L176.772 50.296C176.472 50.788 175.872 51.172 175.044 51.172C173.928 51.172 173.076 50.56 172.872 49.48ZM174.948 46.828C175.848 46.828 176.7 47.38 176.88 48.568H172.872C173.04 47.524 173.82 46.828 174.948 46.828ZM184.092 46V47.032C183.612 46.3 182.844 45.844 181.824 45.844C180.156 45.844 178.788 47.224 178.788 49C178.788 50.776 180.156 52.156 181.824 52.156C182.844 52.156 183.612 51.7 184.092 50.968V52H185.136V46H184.092ZM181.956 51.148C180.756 51.148 179.832 50.224 179.832 49C179.832 47.776 180.756 46.852 181.956 46.852C183.168 46.852 184.092 47.776 184.092 49C184.092 50.224 183.168 51.148 181.956 51.148ZM187.762 47.008V46H186.718V52H187.762V48.82C187.762 47.404 188.734 46.948 189.634 46.984V45.892C188.878 45.892 188.146 46.168 187.762 47.008Z" fill="black"/>
</svg>
