<svg viewBox="0 0 693 396" fill="none" xmlns="http://www.w3.org/2000/svg">
<path d="M447.5 54V343.5" stroke="#017EFA" stroke-width="2" stroke-linecap="round" stroke-linejoin="round"/>
<path d="M58.598 375.182C60.39 375.182 61.888 374.174 61.888 372.13V365.2H60.6V372.13C60.6 373.348 59.802 373.908 58.598 373.908C57.646 373.908 56.946 373.572 56.638 372.788L55.532 373.432C56.05 374.594 57.212 375.182 58.598 375.182ZM69.4583 368V369.204C68.8983 368.35 68.0023 367.818 66.8123 367.818C64.8663 367.818 63.2703 369.428 63.2703 371.5C63.2703 373.572 64.8663 375.182 66.8123 375.182C68.0023 375.182 68.8983 374.65 69.4583 373.796V375H70.6763V368H69.4583ZM66.9663 374.006C65.5663 374.006 64.4883 372.928 64.4883 371.5C64.4883 370.072 65.5663 368.994 66.9663 368.994C68.3803 368.994 69.4583 370.072 69.4583 371.5C69.4583 372.928 68.3803 374.006 66.9663 374.006ZM76.0077 367.818C75.0277 367.818 74.2577 368.182 73.7397 369.008V368H72.5217V375H73.7397V371.29C73.7397 369.638 74.6497 368.98 75.7697 368.98C76.8477 368.98 77.5057 369.624 77.5057 370.772V375H78.7237V370.702C78.7237 368.91 77.6457 367.818 76.0077 367.818Z" fill="#8E8E8E"/>
<path d="M123.692 366.432V365.2H118.05V375H119.352V370.842H123.51V369.61H119.352V366.432H123.692ZM125.997 372.06H131.863C131.891 371.878 131.905 371.696 131.905 371.514C131.905 369.554 130.533 367.818 128.419 367.818C126.235 367.818 124.751 369.428 124.751 371.5C124.751 373.6 126.249 375.182 128.503 375.182C129.903 375.182 130.967 374.552 131.583 373.6L130.547 373.012C130.197 373.586 129.497 374.034 128.531 374.034C127.229 374.034 126.235 373.32 125.997 372.06ZM128.419 368.966C129.469 368.966 130.463 369.61 130.673 370.996H125.997C126.193 369.778 127.103 368.966 128.419 368.966ZM137.169 367.818C135.979 367.818 135.083 368.35 134.523 369.204V365.2H133.305V375H134.523V373.796C135.083 374.65 135.979 375.182 137.169 375.182C139.115 375.182 140.711 373.572 140.711 371.5C140.711 369.428 139.115 367.818 137.169 367.818ZM137.015 374.006C135.601 374.006 134.523 372.928 134.523 371.5C134.523 370.072 135.601 368.994 137.015 368.994C138.415 368.994 139.493 370.072 139.493 371.5C139.493 372.928 138.415 374.006 137.015 374.006Z" fill="#8E8E8E"/>
<path d="M180.22 365.2H178.75L175.642 370.38L172.52 365.2H171.05V375H172.352V367.356L175.558 372.676H175.726L178.932 367.342V375H180.22V365.2ZM187.986 368V369.204C187.426 368.35 186.53 367.818 185.34 367.818C183.394 367.818 181.798 369.428 181.798 371.5C181.798 373.572 183.394 375.182 185.34 375.182C186.53 375.182 187.426 374.65 187.986 373.796V375H189.204V368H187.986ZM185.494 374.006C184.094 374.006 183.016 372.928 183.016 371.5C183.016 370.072 184.094 368.994 185.494 368.994C186.908 368.994 187.986 370.072 187.986 371.5C187.986 372.928 186.908 374.006 185.494 374.006ZM192.267 369.176V368H191.049V375H192.267V371.29C192.267 369.638 193.401 369.106 194.451 369.148V367.874C193.569 367.874 192.715 368.196 192.267 369.176Z" fill="#8E8E8E"/>
<path d="M230.504 375H231.89L228.236 365.2H226.766L223.112 375H224.498L225.296 372.802H229.706L230.504 375ZM225.744 371.584L227.494 366.754L229.258 371.584H225.744ZM236.784 367.818C235.594 367.818 234.698 368.35 234.138 369.204V368H232.92V377.8H234.138V373.796C234.698 374.65 235.594 375.182 236.784 375.182C238.73 375.182 240.326 373.572 240.326 371.5C240.326 369.428 238.73 367.818 236.784 367.818ZM236.63 374.006C235.216 374.006 234.138 372.928 234.138 371.5C234.138 370.072 235.216 368.994 236.63 368.994C238.03 368.994 239.108 370.072 239.108 371.5C239.108 372.928 238.03 374.006 236.63 374.006ZM242.997 369.176V368H241.779V375H242.997V371.29C242.997 369.638 244.131 369.106 245.181 369.148V367.874C244.299 367.874 243.445 368.196 242.997 369.176Z" fill="#8E8E8E"/>
<path d="M287.22 365.2H285.75L282.642 370.38L279.52 365.2H278.05V375H279.352V367.356L282.558 372.676H282.726L285.932 367.342V375H287.22V365.2ZM290.044 372.06H295.91C295.938 371.878 295.952 371.696 295.952 371.514C295.952 369.554 294.58 367.818 292.466 367.818C290.282 367.818 288.798 369.428 288.798 371.5C288.798 373.6 290.296 375.182 292.55 375.182C293.95 375.182 295.014 374.552 295.63 373.6L294.594 373.012C294.244 373.586 293.544 374.034 292.578 374.034C291.276 374.034 290.282 373.32 290.044 372.06ZM292.466 368.966C293.516 368.966 294.51 369.61 294.72 370.996H290.044C290.24 369.778 291.15 368.966 292.466 368.966ZM297.968 366.726C298.416 366.726 298.78 366.362 298.78 365.914C298.78 365.466 298.416 365.088 297.968 365.088C297.506 365.088 297.142 365.466 297.142 365.914C297.142 366.362 297.506 366.726 297.968 366.726ZM297.352 375H298.57V368H297.352V375Z" fill="#8E8E8E"/>
<path d="M333.598 375.182C335.39 375.182 336.888 374.174 336.888 372.13V365.2H335.6V372.13C335.6 373.348 334.802 373.908 333.598 373.908C332.646 373.908 331.946 373.572 331.638 372.788L330.532 373.432C331.05 374.594 332.212 375.182 333.598 375.182ZM343.561 368V371.71C343.561 373.362 342.651 374.02 341.531 374.02C340.453 374.02 339.795 373.376 339.795 372.228V368H338.577V372.298C338.577 374.09 339.655 375.182 341.293 375.182C342.273 375.182 343.043 374.818 343.561 373.992V375H344.779V368H343.561ZM350.119 367.818C349.139 367.818 348.369 368.182 347.851 369.008V368H346.633V375H347.851V371.29C347.851 369.638 348.761 368.98 349.881 368.98C350.959 368.98 351.617 369.624 351.617 370.772V375H352.835V370.702C352.835 368.91 351.757 367.818 350.119 367.818Z" fill="#8E8E8E"/>
<path d="M388.598 375.182C390.39 375.182 391.888 374.174 391.888 372.13V365.2H390.6V372.13C390.6 373.348 389.802 373.908 388.598 373.908C387.646 373.908 386.946 373.572 386.638 372.788L385.532 373.432C386.05 374.594 387.212 375.182 388.598 375.182ZM398.561 368V371.71C398.561 373.362 397.651 374.02 396.531 374.02C395.453 374.02 394.795 373.376 394.795 372.228V368H393.577V372.298C393.577 374.09 394.655 375.182 396.293 375.182C397.273 375.182 398.043 374.818 398.561 373.992V375H399.779V368H398.561ZM401.633 375H402.851V364.78H401.633V375Z" fill="#8E8E8E"/>
<path d="M492.214 375.182C494.216 375.182 495.602 374.09 495.602 372.368C495.602 370.478 493.992 369.974 492.284 369.414C490.912 368.98 490.226 368.644 490.226 367.734C490.226 366.838 490.954 366.278 492.004 366.278C493.194 366.278 493.88 366.95 494.23 367.79L495.322 367.16C494.776 365.928 493.614 365.018 492.004 365.018C490.366 365.018 488.924 366.026 488.924 367.79C488.924 369.61 490.436 370.1 492.004 370.604C493.446 371.052 494.314 371.388 494.314 372.396C494.314 373.278 493.628 373.908 492.242 373.908C490.814 373.908 489.974 373.208 489.624 372.13L488.504 372.774C489.022 374.244 490.352 375.182 492.214 375.182ZM498.036 372.06H503.902C503.93 371.878 503.944 371.696 503.944 371.514C503.944 369.554 502.572 367.818 500.458 367.818C498.274 367.818 496.79 369.428 496.79 371.5C496.79 373.6 498.288 375.182 500.542 375.182C501.942 375.182 503.006 374.552 503.622 373.6L502.586 373.012C502.236 373.586 501.536 374.034 500.57 374.034C499.268 374.034 498.274 373.32 498.036 372.06ZM500.458 368.966C501.508 368.966 502.502 369.61 502.712 370.996H498.036C498.232 369.778 499.142 368.966 500.458 368.966ZM509.208 367.818C508.018 367.818 507.122 368.35 506.562 369.204V368H505.344V377.8H506.562V373.796C507.122 374.65 508.018 375.182 509.208 375.182C511.154 375.182 512.75 373.572 512.75 371.5C512.75 369.428 511.154 367.818 509.208 367.818ZM509.054 374.006C507.64 374.006 506.562 372.928 506.562 371.5C506.562 370.072 507.64 368.994 509.054 368.994C510.454 368.994 511.532 370.072 511.532 371.5C511.532 372.928 510.454 374.006 509.054 374.006Z" fill="#8E8E8E"/>
<path d="M546.6 375.182C549.442 375.182 551.682 372.914 551.682 370.1C551.682 367.272 549.442 365.018 546.6 365.018C543.758 365.018 541.532 367.272 541.532 370.1C541.532 372.914 543.758 375.182 546.6 375.182ZM546.6 373.908C544.458 373.908 542.82 372.242 542.82 370.1C542.82 367.944 544.458 366.278 546.6 366.278C548.742 366.278 550.38 367.944 550.38 370.1C550.38 372.242 548.742 373.908 546.6 373.908ZM556.411 375.182C557.783 375.182 558.973 374.454 559.561 373.362L558.525 372.76C558.133 373.488 557.363 373.978 556.411 373.978C555.011 373.978 553.947 372.9 553.947 371.5C553.947 370.086 555.011 369.008 556.411 369.008C557.349 369.008 558.133 369.498 558.483 370.24L559.505 369.652C558.973 368.546 557.797 367.818 556.411 367.818C554.297 367.818 552.729 369.428 552.729 371.5C552.729 373.572 554.297 375.182 556.411 375.182ZM564.572 369.176V368H562.71V366.04L561.492 366.404V368H560.106V369.176H561.492V372.97C561.492 374.72 562.472 375.28 564.572 375V373.908C563.326 373.964 562.71 374.034 562.71 372.97V369.176H564.572Z" fill="#8E8E8E"/>
<path d="M442.21 375H444.31L440.866 365.2H438.472L435.042 375H437.128L437.716 373.236H441.622L442.21 375ZM438.332 371.43L439.676 367.426L441.02 371.43H438.332ZM449.729 368V371.78C449.729 372.998 449.071 373.516 448.189 373.516C447.377 373.516 446.803 373.026 446.803 372.074V368H444.997V372.298C444.997 374.16 446.159 375.196 447.643 375.196C448.581 375.196 449.309 374.846 449.729 374.216V375H451.535V368H449.729ZM458.551 368V368.868C458.061 368.21 457.305 367.804 456.311 367.804C454.323 367.804 452.825 369.428 452.825 371.388C452.825 373.362 454.323 374.972 456.311 374.972C457.305 374.972 458.061 374.566 458.551 373.908V374.664C458.551 375.77 457.851 376.386 456.717 376.386C455.639 376.386 455.177 375.952 454.883 375.406L453.343 376.288C453.959 377.422 455.163 377.996 456.661 377.996C458.509 377.996 460.315 376.96 460.315 374.664V368H458.551ZM456.591 373.306C455.457 373.306 454.631 372.508 454.631 371.388C454.631 370.282 455.457 369.484 456.591 369.484C457.725 369.484 458.551 370.282 458.551 371.388C458.551 372.508 457.725 373.306 456.591 373.306Z" fill="#254BD1"/>
<path d="M601.14 365.2V372.508L596.1 365.2H595.05V375H596.352V367.678L601.392 375H602.442V365.2H601.14ZM607.702 375.182C609.746 375.182 611.398 373.572 611.398 371.5C611.398 369.428 609.746 367.818 607.702 367.818C605.658 367.818 604.02 369.428 604.02 371.5C604.02 373.572 605.658 375.182 607.702 375.182ZM607.702 373.992C606.316 373.992 605.238 372.914 605.238 371.5C605.238 370.086 606.316 369.008 607.702 369.008C609.102 369.008 610.18 370.086 610.18 371.5C610.18 372.914 609.102 373.992 607.702 373.992ZM617.461 368L615.263 373.698L613.065 368H611.749L614.549 375H615.977L618.777 368H617.461Z" fill="#8E8E8E"/>
<path d="M651.872 365.2H648.05V375H651.872C654.574 375 656.52 372.816 656.52 370.1C656.52 367.384 654.574 365.2 651.872 365.2ZM651.872 373.768H649.352V366.432H651.872C653.888 366.432 655.274 368.028 655.274 370.1C655.274 372.172 653.888 373.768 651.872 373.768ZM658.827 372.06H664.693C664.721 371.878 664.735 371.696 664.735 371.514C664.735 369.554 663.363 367.818 661.249 367.818C659.065 367.818 657.581 369.428 657.581 371.5C657.581 373.6 659.079 375.182 661.333 375.182C662.733 375.182 663.797 374.552 664.413 373.6L663.377 373.012C663.027 373.586 662.327 374.034 661.361 374.034C660.059 374.034 659.065 373.32 658.827 372.06ZM661.249 368.966C662.299 368.966 663.293 369.61 663.503 370.996H658.827C659.023 369.778 659.933 368.966 661.249 368.966ZM669.411 375.182C670.783 375.182 671.973 374.454 672.561 373.362L671.525 372.76C671.133 373.488 670.363 373.978 669.411 373.978C668.011 373.978 666.947 372.9 666.947 371.5C666.947 370.086 668.011 369.008 669.411 369.008C670.349 369.008 671.133 369.498 671.483 370.24L672.505 369.652C671.973 368.546 670.797 367.818 669.411 367.818C667.297 367.818 665.729 369.428 665.729 371.5C665.729 373.572 667.297 375.182 669.411 375.182Z" fill="#8E8E8E"/>
<path d="M21.432 55H26.856V53.92H23.052L25.2 51.784C26.028 50.956 26.7 50.056 26.7 49.012C26.7 47.356 25.392 46.444 24.084 46.444C22.992 46.444 21.972 46.984 21.432 48.1L22.368 48.652C22.728 47.896 23.328 47.524 24.096 47.524C24.876 47.524 25.584 48.04 25.584 49.024C25.584 49.732 25.056 50.404 24.396 51.064L21.432 54.088V55ZM30.9909 55.156C33.0789 55.156 34.2309 53.392 34.2309 50.8C34.2309 48.208 33.0789 46.444 30.9909 46.444C28.9149 46.444 27.7509 48.208 27.7509 50.8C27.7509 53.392 28.9149 55.156 30.9909 55.156ZM30.9909 54.064C29.6349 54.064 28.8669 52.888 28.8669 50.8C28.8669 48.712 29.6349 47.524 30.9909 47.524C32.3469 47.524 33.1269 48.712 33.1269 50.8C33.1269 52.888 32.3469 54.064 30.9909 54.064ZM38.5495 55.156C40.6375 55.156 41.7895 53.392 41.7895 50.8C41.7895 48.208 40.6375 46.444 38.5495 46.444C36.4735 46.444 35.3095 48.208 35.3095 50.8C35.3095 53.392 36.4735 55.156 38.5495 55.156ZM38.5495 54.064C37.1935 54.064 36.4255 52.888 36.4255 50.8C36.4255 48.712 37.1935 47.524 38.5495 47.524C39.9055 47.524 40.6855 48.712 40.6855 50.8C40.6855 52.888 39.9055 54.064 38.5495 54.064ZM48.1961 55L45.2321 51.904L48.1001 49H46.7561L44.1641 51.652V46.6H43.1201V55H44.1641V52.156L46.9001 55H48.1961Z" fill="#8E8E8E"/>
<path d="M23.376 118.6L21.168 119.368L21.444 120.328L23.232 119.8V127H24.336V118.6H23.376ZM28.5173 121.876H27.2933L27.4373 119.644H31.0253V118.6H26.4293L26.1173 122.956H28.4933C29.4893 122.956 30.2453 123.508 30.2453 124.516C30.2453 125.512 29.4893 126.064 28.4693 126.064C27.5573 126.064 26.8733 125.644 26.6453 124.816L25.6973 125.356C26.1053 126.556 27.2333 127.156 28.4693 127.156C29.9813 127.156 31.3493 126.22 31.3493 124.516C31.3493 122.8 30.0173 121.876 28.5173 121.876ZM35.4675 127.156C37.5555 127.156 38.7075 125.392 38.7075 122.8C38.7075 120.208 37.5555 118.444 35.4675 118.444C33.3915 118.444 32.2275 120.208 32.2275 122.8C32.2275 125.392 33.3915 127.156 35.4675 127.156ZM35.4675 126.064C34.1115 126.064 33.3435 124.888 33.3435 122.8C33.3435 120.712 34.1115 119.524 35.4675 119.524C36.8235 119.524 37.6035 120.712 37.6035 122.8C37.6035 124.888 36.8235 126.064 35.4675 126.064ZM45.1141 127L42.1501 123.904L45.0181 121H43.6741L41.0821 123.652V118.6H40.0381V127H41.0821V124.156L43.8181 127H45.1141Z" fill="#8E8E8E"/>
<path d="M23.376 190.6L21.168 191.368L21.444 192.328L23.232 191.8V199H24.336V190.6H23.376ZM29.0573 199.156C31.1453 199.156 32.2973 197.392 32.2973 194.8C32.2973 192.208 31.1453 190.444 29.0573 190.444C26.9813 190.444 25.8173 192.208 25.8173 194.8C25.8173 197.392 26.9813 199.156 29.0573 199.156ZM29.0573 198.064C27.7013 198.064 26.9333 196.888 26.9333 194.8C26.9333 192.712 27.7013 191.524 29.0573 191.524C30.4133 191.524 31.1933 192.712 31.1933 194.8C31.1933 196.888 30.4133 198.064 29.0573 198.064ZM36.6159 199.156C38.7039 199.156 39.8559 197.392 39.8559 194.8C39.8559 192.208 38.7039 190.444 36.6159 190.444C34.5399 190.444 33.3759 192.208 33.3759 194.8C33.3759 197.392 34.5399 199.156 36.6159 199.156ZM36.6159 198.064C35.2599 198.064 34.4919 196.888 34.4919 194.8C34.4919 192.712 35.2599 191.524 36.6159 191.524C37.9719 191.524 38.7519 192.712 38.7519 194.8C38.7519 196.888 37.9719 198.064 36.6159 198.064ZM46.2625 199L43.2985 195.904L46.1665 193H44.8225L42.2305 195.652V190.6H41.1865V199H42.2305V196.156L44.9665 199H46.2625Z" fill="#8E8E8E"/>
<path d="M24.24 265.876H23.016L23.16 263.644H26.748V262.6H22.152L21.84 266.956H24.216C25.212 266.956 25.968 267.508 25.968 268.516C25.968 269.512 25.212 270.064 24.192 270.064C23.28 270.064 22.596 269.644 22.368 268.816L21.42 269.356C21.828 270.556 22.956 271.156 24.192 271.156C25.704 271.156 27.072 270.22 27.072 268.516C27.072 266.8 25.74 265.876 24.24 265.876ZM31.1902 271.156C33.2782 271.156 34.4302 269.392 34.4302 266.8C34.4302 264.208 33.2782 262.444 31.1902 262.444C29.1142 262.444 27.9502 264.208 27.9502 266.8C27.9502 269.392 29.1142 271.156 31.1902 271.156ZM31.1902 270.064C29.8342 270.064 29.0662 268.888 29.0662 266.8C29.0662 264.712 29.8342 263.524 31.1902 263.524C32.5462 263.524 33.3262 264.712 33.3262 266.8C33.3262 268.888 32.5462 270.064 31.1902 270.064ZM40.8368 271L37.8728 267.904L40.7408 265H39.3968L36.8048 267.652V262.6H35.7607V271H36.8048V268.156L39.5408 271H40.8368Z" fill="#8E8E8E"/>
<path d="M24.78 343.156C26.868 343.156 28.02 341.392 28.02 338.8C28.02 336.208 26.868 334.444 24.78 334.444C22.704 334.444 21.54 336.208 21.54 338.8C21.54 341.392 22.704 343.156 24.78 343.156ZM24.78 342.064C23.424 342.064 22.656 340.888 22.656 338.8C22.656 336.712 23.424 335.524 24.78 335.524C26.136 335.524 26.916 336.712 26.916 338.8C26.916 340.888 26.136 342.064 24.78 342.064Z" fill="#8E8E8E"/>
<path d="M56 57C56 54.7909 57.7909 53 60 53H94C96.2091 53 98 54.7909 98 57V345H56V57Z" fill="#FBFAFF"/>
<path d="M109 57C109 54.7909 110.791 53 113 53H147C149.209 53 151 54.7909 151 57V345H109V57Z" fill="#FBFAFF"/>
<path d="M162 57C162 54.7909 163.791 53 166 53H200C202.209 53 204 54.7909 204 57V345H162V57Z" fill="#FBFAFF"/>
<path d="M215 57C215 54.7909 216.791 53 219 53H253C255.209 53 257 54.7909 257 57V345H215V57Z" fill="#FBFAFF"/>
<path d="M268 57C268 54.7909 269.791 53 272 53H306C308.209 53 310 54.7909 310 57V345H268V57Z" fill="#FBFAFF"/>
<path d="M321 57C321 54.7909 322.791 53 325 53H359C361.209 53 363 54.7909 363 57V345H321V57Z" fill="#FBFAFF"/>
<path d="M374 57C374 54.7909 375.791 53 378 53H412C414.209 53 416 54.7909 416 57V345H374V57Z" fill="#FBFAFF"/>
<path d="M427 57C427 54.7909 428.791 53 431 53H465C467.209 53 469 54.7909 469 57V345H427V57Z" fill="#EAECFB"/>
<path d="M448 53.5C448 53.2239 448.224 53 448.5 53V53C448.776 53 449 53.2239 449 53.5V345H448V53.5Z" fill="#017EFA"/>
<path d="M480 57C480 54.7909 481.791 53 484 53H518C520.209 53 522 54.7909 522 57V345H480V57Z" fill="#FBFAFF"/>
<path d="M533 57C533 54.7909 534.791 53 537 53H571C573.209 53 575 54.7909 575 57V345H533V57Z" fill="#FBFAFF"/>
<path d="M586 57C586 54.7909 587.791 53 590 53H624C626.209 53 628 54.7909 628 57V345H586V57Z" fill="#FBFAFF"/>
<path d="M639 57C639 54.7909 640.791 53 643 53H677C679.209 53 681 54.7909 681 57V345H639V57Z" fill="#FBFAFF"/>
<path opacity="0.32" d="M133 267L74.5 277.5V344H449.5V177L393.5 192.5L342 177L286 192.5L236 237L185.5 277.5L133 267Z" fill="url(#paint0_linear_106_8)"/>
<path d="M74.5 277.5L133 267L185.5 277.5L236 237L286 192.5L342 177L393.5 192.5L448 177.5" stroke="#017EFA" stroke-width="3" stroke-linecap="round" stroke-linejoin="round"/>
<path d="M448.5 177L500 165L552 136.5L605.5 132L659.5 112" stroke="#017EFA" stroke-width="2" stroke-linecap="round" stroke-linejoin="round" stroke-dasharray="6 6"/>
<circle cx="448" cy="177" r="9" fill="#017EFA"/>
<circle cx="448" cy="177" r="6" fill="white"/>
<path d="M74.5 304L130.5 294.5L182.5 250.5H237.5L291.5 223.5L342 237L391.5 223.5L448 237L499.5 201L553 161L606 172L660 201" stroke="#FD1F9B" stroke-width="2" stroke-linecap="round" stroke-linejoin="round"/>
<g filter="url(#filter0_d_106_8)">
<rect x="358" y="96" width="168" height="58" rx="8" fill="white"/>
</g>
<path d="M371.981 110.6L369.773 111.38L370.181 112.796L371.765 112.352V119H373.421V110.6H371.981ZM379.537 114.632C380.077 114.248 380.413 113.672 380.413 112.892C380.413 111.272 379.165 110.432 377.689 110.432C376.213 110.432 374.953 111.272 374.953 112.892C374.953 113.672 375.301 114.248 375.829 114.632C375.097 115.076 374.677 115.808 374.677 116.66C374.677 118.208 375.817 119.168 377.689 119.168C379.549 119.168 380.701 118.208 380.701 116.66C380.701 115.808 380.281 115.076 379.537 114.632ZM377.689 111.992C378.313 111.992 378.769 112.352 378.769 112.976C378.769 113.588 378.313 113.972 377.689 113.972C377.065 113.972 376.609 113.588 376.609 112.976C376.609 112.352 377.065 111.992 377.689 111.992ZM377.689 117.608C376.897 117.608 376.321 117.2 376.321 116.444C376.321 115.7 376.897 115.292 377.689 115.292C378.481 115.292 379.057 115.7 379.057 116.444C379.057 117.2 378.481 117.608 377.689 117.608ZM384.403 113.66H383.539L383.647 112.148H386.875V110.6H382.111L381.775 115.268H384.319C385.135 115.268 385.615 115.736 385.615 116.408C385.615 117.092 385.135 117.548 384.271 117.548C383.431 117.548 382.963 117.188 382.759 116.54L381.343 117.368C381.823 118.592 382.963 119.168 384.271 119.168C385.855 119.168 387.271 118.208 387.271 116.408C387.271 114.608 385.939 113.66 384.403 113.66ZM394.961 119L391.733 114.68L394.841 110.6H392.933L390.053 114.308V110.6H388.397V119H390.053V115.064L393.053 119H394.961Z" fill="#017EFA"/>
<path opacity="0.7" d="M402.452 113.416C402.896 113.416 403.232 113.068 403.232 112.636C403.232 112.204 402.896 111.856 402.452 111.856C402.02 111.856 401.672 112.204 401.672 112.636C401.672 113.068 402.02 113.416 402.452 113.416ZM402.452 118.132C402.896 118.132 403.232 117.784 403.232 117.352C403.232 116.92 402.896 116.572 402.452 116.572C402.02 116.572 401.672 116.92 401.672 117.352C401.672 117.784 402.02 118.132 402.452 118.132ZM413.014 109.6V113.164H408.934V109.6H407.818V118H408.934V114.22H413.014V118H414.118V109.6H413.014ZM416.336 110.908C416.72 110.908 417.032 110.596 417.032 110.212C417.032 109.828 416.72 109.504 416.336 109.504C415.94 109.504 415.628 109.828 415.628 110.212C415.628 110.596 415.94 110.908 416.336 110.908ZM415.808 118H416.852V112H415.808V118ZM423.424 112V113.032C422.944 112.3 422.176 111.844 421.168 111.844C419.464 111.844 418.108 113.224 418.108 114.964C418.108 116.716 419.464 118.096 421.168 118.096C422.176 118.096 422.944 117.628 423.424 116.896V117.748C423.424 118.876 422.668 119.584 421.42 119.584C420.244 119.584 419.74 119.14 419.464 118.576L418.552 119.092C419.044 120.04 420.052 120.556 421.396 120.556C422.956 120.556 424.456 119.62 424.456 117.748V112H423.424ZM421.288 117.1C420.076 117.1 419.152 116.176 419.152 114.964C419.152 113.764 420.076 112.84 421.288 112.84C422.5 112.84 423.424 113.764 423.424 114.964C423.424 116.176 422.5 117.1 421.288 117.1ZM429.026 111.844C428.186 111.844 427.526 112.156 427.082 112.864V109.6H426.038V118H427.082V114.82C427.082 113.404 427.862 112.84 428.822 112.84C429.746 112.84 430.31 113.392 430.31 114.376V118H431.354V114.316C431.354 112.78 430.43 111.844 429.026 111.844ZM439.124 111.844C438.104 111.844 437.336 112.3 436.856 113.032V112H435.812V120.4H436.856V116.968C437.336 117.7 438.104 118.156 439.124 118.156C440.792 118.156 442.16 116.776 442.16 115C442.16 113.224 440.792 111.844 439.124 111.844ZM438.992 117.148C437.78 117.148 436.856 116.224 436.856 115C436.856 113.776 437.78 112.852 438.992 112.852C440.192 112.852 441.116 113.776 441.116 115C441.116 116.224 440.192 117.148 438.992 117.148ZM448.373 112V113.032C447.893 112.3 447.125 111.844 446.105 111.844C444.437 111.844 443.069 113.224 443.069 115C443.069 116.776 444.437 118.156 446.105 118.156C447.125 118.156 447.893 117.7 448.373 116.968V118H449.417V112H448.373ZM446.237 117.148C445.037 117.148 444.113 116.224 444.113 115C444.113 113.776 445.037 112.852 446.237 112.852C447.449 112.852 448.373 113.776 448.373 115C448.373 116.224 447.449 117.148 446.237 117.148ZM451.527 110.908C451.911 110.908 452.223 110.596 452.223 110.212C452.223 109.828 451.911 109.504 451.527 109.504C451.131 109.504 450.819 109.828 450.819 110.212C450.819 110.596 451.131 110.908 451.527 110.908ZM450.999 118H452.043V112H450.999V118ZM458.604 109.6V113.032C458.124 112.3 457.356 111.844 456.336 111.844C454.668 111.844 453.3 113.224 453.3 115C453.3 116.776 454.668 118.156 456.336 118.156C457.356 118.156 458.124 117.7 458.604 116.968V118H459.648V109.6H458.604ZM456.468 117.148C455.268 117.148 454.344 116.224 454.344 115C454.344 113.776 455.268 112.852 456.468 112.852C457.68 112.852 458.604 113.776 458.604 115C458.604 116.224 457.68 117.148 456.468 117.148ZM465.274 113.008V112H464.229V118H465.274V114.82C465.274 113.404 466.246 112.948 467.146 112.984V111.892C466.39 111.892 465.658 112.168 465.274 113.008ZM468.571 115.48H473.599C473.623 115.324 473.635 115.168 473.635 115.012C473.635 113.332 472.459 111.844 470.647 111.844C468.775 111.844 467.503 113.224 467.503 115C467.503 116.8 468.787 118.156 470.719 118.156C471.919 118.156 472.831 117.616 473.359 116.8L472.471 116.296C472.171 116.788 471.571 117.172 470.743 117.172C469.627 117.172 468.775 116.56 468.571 115.48ZM470.647 112.828C471.547 112.828 472.399 113.38 472.579 114.568H468.571C468.739 113.524 469.519 112.828 470.647 112.828ZM479.791 112V113.032C479.311 112.3 478.543 111.844 477.523 111.844C475.855 111.844 474.487 113.224 474.487 115C474.487 116.776 475.855 118.156 477.523 118.156C478.543 118.156 479.311 117.7 479.791 116.968V118H480.835V112H479.791ZM477.655 117.148C476.455 117.148 475.531 116.224 475.531 115C475.531 113.776 476.455 112.852 477.655 112.852C478.867 112.852 479.791 113.776 479.791 115C479.791 116.224 478.867 117.148 477.655 117.148ZM485.237 118.156C486.413 118.156 487.433 117.532 487.937 116.596L487.049 116.08C486.713 116.704 486.053 117.124 485.237 117.124C484.037 117.124 483.125 116.2 483.125 115C483.125 113.788 484.037 112.864 485.237 112.864C486.041 112.864 486.713 113.284 487.013 113.92L487.889 113.416C487.433 112.468 486.425 111.844 485.237 111.844C483.425 111.844 482.081 113.224 482.081 115C482.081 116.776 483.425 118.156 485.237 118.156ZM491.956 111.844C491.116 111.844 490.456 112.156 490.012 112.864V109.6H488.968V118H490.012V114.82C490.012 113.404 490.792 112.84 491.752 112.84C492.676 112.84 493.24 113.392 493.24 114.376V118H494.284V114.316C494.284 112.78 493.36 111.844 491.956 111.844Z" fill="#1C1F37"/>
<path d="M375.679 131.6V133.184H379.267L376.507 140H378.259L381.103 133.004V131.6H375.679ZM384.403 134.66H383.539L383.647 133.148H386.875V131.6H382.111L381.775 136.268H384.319C385.135 136.268 385.615 136.736 385.615 137.408C385.615 138.092 385.135 138.548 384.271 138.548C383.431 138.548 382.963 138.188 382.759 137.54L381.343 138.368C381.823 139.592 382.963 140.168 384.271 140.168C385.855 140.168 387.271 139.208 387.271 137.408C387.271 135.608 385.939 134.66 384.403 134.66ZM394.961 140L391.733 135.68L394.841 131.6H392.933L390.053 135.308V131.6H388.397V140H390.053V136.064L393.053 140H394.961Z" fill="#FD1F9B"/>
<path opacity="0.7" d="M402.452 134.416C402.896 134.416 403.232 134.068 403.232 133.636C403.232 133.204 402.896 132.856 402.452 132.856C402.02 132.856 401.672 133.204 401.672 133.636C401.672 134.068 402.02 134.416 402.452 134.416ZM402.452 139.132C402.896 139.132 403.232 138.784 403.232 138.352C403.232 137.92 402.896 137.572 402.452 137.572C402.02 137.572 401.672 137.92 401.672 138.352C401.672 138.784 402.02 139.132 402.452 139.132ZM415.678 130.6H414.418L411.754 135.04L409.078 130.6H407.818V139H408.934V132.448L411.682 137.008H411.826L414.574 132.436V139H415.678V130.6ZM418.098 136.48H423.126C423.15 136.324 423.162 136.168 423.162 136.012C423.162 134.332 421.986 132.844 420.174 132.844C418.302 132.844 417.03 134.224 417.03 136C417.03 137.8 418.314 139.156 420.246 139.156C421.446 139.156 422.358 138.616 422.886 137.8L421.998 137.296C421.698 137.788 421.098 138.172 420.27 138.172C419.154 138.172 418.302 137.56 418.098 136.48ZM420.174 133.828C421.074 133.828 421.926 134.38 422.106 135.568H418.098C418.266 134.524 419.046 133.828 420.174 133.828ZM429.319 130.6V134.032C428.839 133.3 428.071 132.844 427.051 132.844C425.383 132.844 424.015 134.224 424.015 136C424.015 137.776 425.383 139.156 427.051 139.156C428.071 139.156 428.839 138.7 429.319 137.968V139H430.363V130.6H429.319ZM427.183 138.148C425.983 138.148 425.059 137.224 425.059 136C425.059 134.776 425.983 133.852 427.183 133.852C428.395 133.852 429.319 134.776 429.319 136C429.319 137.224 428.395 138.148 427.183 138.148ZM437.764 139.156C439.516 139.156 440.932 137.776 440.932 136C440.932 134.224 439.516 132.844 437.764 132.844C436.012 132.844 434.608 134.224 434.608 136C434.608 137.776 436.012 139.156 437.764 139.156ZM437.764 138.136C436.576 138.136 435.652 137.212 435.652 136C435.652 134.788 436.576 133.864 437.764 133.864C438.964 133.864 439.888 134.788 439.888 136C439.888 137.212 438.964 138.136 437.764 138.136ZM443.207 134.008V133H442.163V139H443.207V135.82C443.207 134.404 444.179 133.948 445.079 133.984V132.892C444.323 132.892 443.591 133.168 443.207 134.008ZM450.752 133V134.032C450.272 133.3 449.504 132.844 448.496 132.844C446.792 132.844 445.436 134.224 445.436 135.964C445.436 137.716 446.792 139.096 448.496 139.096C449.504 139.096 450.272 138.628 450.752 137.896V138.748C450.752 139.876 449.996 140.584 448.748 140.584C447.572 140.584 447.068 140.14 446.792 139.576L445.88 140.092C446.372 141.04 447.38 141.556 448.724 141.556C450.284 141.556 451.784 140.62 451.784 138.748V133H450.752ZM448.616 138.1C447.404 138.1 446.48 137.176 446.48 135.964C446.48 134.764 447.404 133.84 448.616 133.84C449.828 133.84 450.752 134.764 450.752 135.964C450.752 137.176 449.828 138.1 448.616 138.1ZM458.334 133V134.032C457.854 133.3 457.086 132.844 456.066 132.844C454.398 132.844 453.03 134.224 453.03 136C453.03 137.776 454.398 139.156 456.066 139.156C457.086 139.156 457.854 138.7 458.334 137.968V139H459.378V133H458.334ZM456.198 138.148C454.998 138.148 454.074 137.224 454.074 136C454.074 134.776 454.998 133.852 456.198 133.852C457.41 133.852 458.334 134.776 458.334 136C458.334 137.224 457.41 138.148 456.198 138.148ZM463.948 132.844C463.108 132.844 462.448 133.156 462.004 133.864V133H460.96V139H462.004V135.82C462.004 134.404 462.784 133.84 463.744 133.84C464.668 133.84 465.232 134.392 465.232 135.376V139H466.276V135.316C466.276 133.78 465.352 132.844 463.948 132.844ZM468.261 131.908C468.645 131.908 468.957 131.596 468.957 131.212C468.957 130.828 468.645 130.504 468.261 130.504C467.865 130.504 467.553 130.828 467.553 131.212C467.553 131.596 467.865 131.908 468.261 131.908ZM467.733 139H468.777V133H467.733V139ZM473.19 139.156C474.366 139.156 475.386 138.532 475.89 137.596L475.002 137.08C474.666 137.704 474.006 138.124 473.19 138.124C471.99 138.124 471.078 137.2 471.078 136C471.078 134.788 471.99 133.864 473.19 133.864C473.994 133.864 474.666 134.284 474.966 134.92L475.842 134.416C475.386 133.468 474.378 132.844 473.19 132.844C471.378 132.844 470.034 134.224 470.034 136C470.034 137.776 471.378 139.156 473.19 139.156ZM480.977 134.008V133H479.933V139H480.977V135.82C480.977 134.404 481.949 133.948 482.849 133.984V132.892C482.093 132.892 481.361 133.168 480.977 134.008ZM484.274 136.48H489.302C489.326 136.324 489.338 136.168 489.338 136.012C489.338 134.332 488.162 132.844 486.35 132.844C484.478 132.844 483.206 134.224 483.206 136C483.206 137.8 484.49 139.156 486.422 139.156C487.622 139.156 488.534 138.616 489.062 137.8L488.174 137.296C487.874 137.788 487.274 138.172 486.446 138.172C485.33 138.172 484.478 137.56 484.274 136.48ZM486.35 133.828C487.25 133.828 488.102 134.38 488.282 135.568H484.274C484.442 134.524 485.222 133.828 486.35 133.828ZM495.494 133V134.032C495.014 133.3 494.246 132.844 493.226 132.844C491.558 132.844 490.19 134.224 490.19 136C490.19 137.776 491.558 139.156 493.226 139.156C494.246 139.156 495.014 138.7 495.494 137.968V139H496.538V133H495.494ZM493.358 138.148C492.158 138.148 491.234 137.224 491.234 136C491.234 134.776 492.158 133.852 493.358 133.852C494.57 133.852 495.494 134.776 495.494 136C495.494 137.224 494.57 138.148 493.358 138.148ZM500.94 139.156C502.116 139.156 503.136 138.532 503.64 137.596L502.752 137.08C502.416 137.704 501.756 138.124 500.94 138.124C499.74 138.124 498.828 137.2 498.828 136C498.828 134.788 499.74 133.864 500.94 133.864C501.744 133.864 502.416 134.284 502.716 134.92L503.592 134.416C503.136 133.468 502.128 132.844 500.94 132.844C499.128 132.844 497.784 134.224 497.784 136C497.784 137.776 499.128 139.156 500.94 139.156ZM507.659 132.844C506.819 132.844 506.159 133.156 505.715 133.864V130.6H504.671V139H505.715V135.82C505.715 134.404 506.495 133.84 507.455 133.84C508.379 133.84 508.943 134.392 508.943 135.376V139H509.987V135.316C509.987 133.78 509.063 132.844 507.659 132.844Z" fill="#1C1F37"/>
<defs>
<filter id="filter0_d_106_8" x="338" y="80" width="208" height="98" filterUnits="userSpaceOnUse" color-interpolation-filters="sRGB">
<feFlood flood-opacity="0" result="BackgroundImageFix"/>
<feColorMatrix in="SourceAlpha" type="matrix" values="0 0 0 0 0 0 0 0 0 0 0 0 0 0 0 0 0 0 127 0" result="hardAlpha"/>
<feOffset dy="4"/>
<feGaussianBlur stdDeviation="10"/>
<feColorMatrix type="matrix" values="0 0 0 0 0.890556 0 0 0 0 0.897623 0 0 0 0 0.954167 0 0 0 1 0"/>
<feBlend mode="normal" in2="BackgroundImageFix" result="effect1_dropShadow_106_8"/>
<feBlend mode="normal" in="SourceGraphic" in2="effect1_dropShadow_106_8" result="shape"/>
</filter>
<linearGradient id="paint0_linear_106_8" x1="262" y1="177" x2="262" y2="344" gradientUnits="userSpaceOnUse">
<stop stop-color="#254BD1"/>
<stop offset="1" stop-color="#254BD1" stop-opacity="0"/>
</linearGradient>
</defs>
</svg>
