<svg width="20" height="20" viewBox="0 0 20 20" fill="none" xmlns="http://www.w3.org/2000/svg">
<path d="M19.0625 9.37496C19.0613 8.29789 18.6329 7.26529 17.8713 6.50368C17.1097 5.74208 16.0771 5.31368 15 5.31246H11.8779C11.8384 5.31222 7.88947 5.25168 4.1297 2.09824C3.90193 1.90697 3.62429 1.78468 3.32942 1.74575C3.03455 1.70683 2.73469 1.75288 2.46508 1.87849C2.19548 2.0041 1.96733 2.20406 1.80745 2.45487C1.64756 2.70567 1.56259 2.9969 1.56251 3.29433V15.4556C1.56071 15.7532 1.64479 16.045 1.80468 16.2961C1.96456 16.5471 2.19345 16.7467 2.46392 16.871C2.67195 16.9686 2.89887 17.0195 3.12868 17.0199C3.49535 17.0191 3.84993 16.8887 4.1297 16.6517C5.90982 15.152 8.03423 14.1175 10.3125 13.6407V15.8637C10.3115 16.1541 10.3919 16.4389 10.5446 16.6859C10.6972 16.9329 10.916 17.1322 11.1762 17.2612L12.6338 17.9901C12.8431 18.0948 13.0732 18.151 13.3072 18.1549C13.5411 18.1587 13.773 18.1099 13.9855 18.0121C14.1981 17.9143 14.386 17.77 14.5354 17.5899C14.6847 17.4098 14.7917 17.1984 14.8485 16.9714L15.7496 13.367C16.6801 13.1911 17.5201 12.6962 18.1248 11.9675C18.7296 11.2388 19.0612 10.3219 19.0625 9.37496ZM3.43743 14.8021V3.94785C5.44649 5.51423 7.80572 6.56957 10.3125 7.02324V11.7267C7.80571 12.1803 5.44648 13.2357 3.43743 14.8021ZM13.1238 16.1388L12.1875 15.6706V13.4375H13.7992L13.1238 16.1388ZM15 11.5625H12.1875V7.18746H15C15.5802 7.18746 16.1366 7.41793 16.5468 7.82816C16.957 8.2384 17.1875 8.7948 17.1875 9.37496C17.1875 9.95512 16.957 10.5115 16.5468 10.9218C16.1366 11.332 15.5802 11.5625 15 11.5625Z" fill="#017EFA"/>
</svg>
